<svg id="s" xmlns="http://www.w3.org/2000/svg" width="550" height="160" viewbox="5 5 545 155">
    <style>
        #s {
            color: #d1d3dc;
        }
        .n-node {
            fill: transparent;
        }
        .main-line, .regular-line, .n-node, txt {
            stroke: currentColor;
        }
        .txt {
            font-weight: 300;
            font-family: sans-serif;
            font-size: 150px;
            fill: currentColor;
        }
    </style>
    <text x="130" y="145" class="txt">erOne</text>
<g><path class="regular-line" d="m27 20 l76 0" stroke-width="2.296559466169895" stroke-opacity="0.16206993327123687"></path><path class="regular-line" d="m26.3966808403418 22.842969262374133 l77.2066383193164 34.314061475251734" stroke-width="4.473154271562829" stroke-opacity="0.43414428394535365"></path><path class="regular-line" d="m25.23186523078562 24.65054687180944 l79.53626953842877 70.69890625638112" stroke-width="3.1378043971741256" stroke-opacity="0.2672255496467657"></path><path class="regular-line" d="m26.3966808403418 57.15703073762587 l77.2066383193164 -34.314061475251734" stroke-width="3.539956428279293" stroke-opacity="0.3174945535349116"></path><path class="regular-line" d="m27 60 l76 0" stroke-width="2.168061317170144" stroke-opacity="0.14600766464626802"></path><path class="regular-line" d="m26.3966808403418 62.84296926237413 l77.2066383193164 34.314061475251734" stroke-width="3.3478823863888874" stroke-opacity="0.2934852982986109"></path><path class="regular-line" d="m25.23186523078562 64.65054687180944 l79.53626953842877 70.69890625638112" stroke-width="3.6806140971398236" stroke-opacity="0.33507676214247795"></path><path class="regular-line" d="m25.23186523078562 95.34945312819056 l79.53626953842877 -70.69890625638112" stroke-width="5.060976978708341" stroke-opacity="0.5076221223385426"></path><path class="regular-line" d="m26.3966808403418 97.15703073762586 l77.2066383193164 -34.314061475251734" stroke-width="4.122042267874229" stroke-opacity="0.3902552834842786"></path><path class="regular-line" d="m27 100 l76 0" stroke-width="4.254029192806235" stroke-opacity="0.4067536491007794"></path><path class="regular-line" d="m26.3966808403418 102.84296926237414 l77.2066383193164 34.314061475251734" stroke-width="3.829398338867543" stroke-opacity="0.3536747923584429"></path><path class="regular-line" d="m24.2 134.4 l81.6 -108.80000000000001" stroke-width="5.209991053029271" stroke-opacity="0.5262488816286589"></path><path class="regular-line" d="m25.23186523078562 135.34945312819056 l79.53626953842877 -70.69890625638112" stroke-width="2.768057125177833" stroke-opacity="0.22100714064722915"></path><path class="regular-line" d="m26.3966808403418 137.15703073762586 l77.2066383193164 -34.314061475251734" stroke-width="3.823032157461695" stroke-opacity="0.35287901968271185"></path><path class="regular-line" d="m27 140 l76 0" stroke-width="3.444359350913797" stroke-opacity="0.30554491886422463"></path><path class="main-line" d="m24.2 25.6 l81.6 108.80000000000001" stroke-width="10" stroke-opacity="1.125"></path><path class="main-line" d="m20 27 l0 26" stroke-width="10" stroke-opacity="1.125"></path><path class="main-line" d="m20 67 l0 26" stroke-width="10" stroke-opacity="1.125"></path><path class="main-line" d="m20 107 l0 26" stroke-width="10" stroke-opacity="1.125"></path><path class="main-line" d="m110 27 l0 26" stroke-width="10" stroke-opacity="1.125"></path><path class="main-line" d="m110 67 l0 26" stroke-width="10" stroke-opacity="1.125"></path><path class="main-line" d="m110 107 l0 26" stroke-width="10" stroke-opacity="1.125"></path></g><g><circle class="n-node" cx="20" cy="20" r="6" stroke-width="6"></circle><circle class="n-node" cx="20" cy="60" r="6" stroke-width="6"></circle><circle class="n-node" cx="20" cy="100" r="6" stroke-width="6"></circle><circle class="n-node" cx="20" cy="140" r="6" stroke-width="6"></circle><circle class="n-node" cx="110" cy="20" r="6" stroke-width="6"></circle><circle class="n-node" cx="110" cy="60" r="6" stroke-width="6"></circle><circle class="n-node" cx="110" cy="100" r="6" stroke-width="6"></circle><circle class="n-node" cx="110" cy="140" r="6" stroke-width="6"></circle></g></svg>
